<svg width="400" height="492" viewBox="0 0 400 492" fill="none" xmlns="http://www.w3.org/2000/svg">
<path d="M134 453.347C134 458.317 138.029 462.347 143 462.347C144.105 462.347 145 463.242 145 464.347V491.693H0V431.044H134V453.347Z" fill="#303030" style="fill:#303030;fill:color(display-p3 0.1864 0.1864 0.1864);fill-opacity:1;"/>
<path d="M400 491.693H255V466.264C255 465.159 255.895 464.264 257 464.264C261.971 464.264 266 460.234 266 455.264V431.044H400V491.693Z" fill="#303030" style="fill:#303030;fill:color(display-p3 0.1864 0.1864 0.1864);fill-opacity:1;"/>
<path d="M132 331.347C133.105 331.347 134 332.242 134 333.347V383.391H0V333.347C-3.48608e-08 332.242 0.895431 331.347 2 331.347H132Z" fill="#303030" style="fill:#303030;fill:color(display-p3 0.1864 0.1864 0.1864);fill-opacity:1;"/>
<path d="M398 331.347C399.105 331.347 400 332.242 400 333.347V383.391H266V333.347C266 332.242 266.895 331.347 268 331.347H398Z" fill="#303030" style="fill:#303030;fill:color(display-p3 0.1864 0.1864 0.1864);fill-opacity:1;"/>
<path d="M400 276.172H0V215.521H400V276.172Z" fill="#303030" style="fill:#303030;fill:color(display-p3 0.1864 0.1864 0.1864);fill-opacity:1;"/>
<path d="M134 167.869H0V108.303H134V167.869Z" fill="#303030" style="fill:#303030;fill:color(display-p3 0.1864 0.1864 0.1864);fill-opacity:1;"/>
<path d="M400 167.869H266V108.303H400V167.869Z" fill="#303030" style="fill:#303030;fill:color(display-p3 0.1864 0.1864 0.1864);fill-opacity:1;"/>
<path d="M145 44.3467C145 45.4512 144.105 46.3467 143 46.3467C138.029 46.3467 134 50.3761 134 55.3467V60.6494H0V0H145V44.3467Z" fill="#303030" style="fill:#303030;fill:color(display-p3 0.1864 0.1864 0.1864);fill-opacity:1;"/>
<path d="M400 60.6494H266V55.3467C266 50.3761 261.971 46.3467 257 46.3467C255.895 46.3467 255 45.4512 255 44.3467V0H400V60.6494Z" fill="#303030" style="fill:#303030;fill:color(display-p3 0.1864 0.1864 0.1864);fill-opacity:1;"/>
</svg>
